<svg xmlns="http://www.w3.org/2000/svg" viewBox="0 0 38.5 38.5" id="dribbble">
  <defs>
    <linearGradient id="a" x1="4.52" x2="33.99" y1="6.88" y2="31.61" gradientUnits="userSpaceOnUse">
      <stop offset="0" stop-color="#ea4c89"></stop>
      <stop offset="1" stop-color="#c42264"></stop>
    </linearGradient>
  </defs>
  <g>
    <g>
      <path fill="url(#a)" d="M38.5,19.25c0,5.29-2.16,10.11-5.65,13.6s-7.89,5.46-12.91,5.63c-.23.02-.46.02-.69.02C8.66,38.5,0,29.84,0,19.25c0-5.29,2.16-10.11,5.65-13.6C9.14,2.16,13.96,0,19.25,0s10.11,2.16,13.6,5.65,5.53,8.05,5.64,13.17c.01.14.01.29.01.43Z"></path>
      <g>
        <path fill="#9e1554" d="M38.5,19.25c0,5.29-2.16,10.11-5.65,13.6s-7.89,5.46-12.91,5.63c-3.2-3.2-6.41-6.41-9.61-9.61-2.49-2.45-4.03-5.85-4.03-9.62,0-7.46,6.05-13.52,13.51-13.52,3.76,0,7.17,1.55,9.62,4.04,3.03,3.02,6.04,6.03,9.06,9.05.01.14.01.29.01.43Z"></path>
        <path fill="#fff" fill-rule="evenodd" d="M19.58,5.39c-7.46,0-13.52,6.05-13.52,13.52s6.05,13.52,13.52,13.52,13.52-6.05,13.52-13.52-6.07-13.52-13.52-13.52ZM28.51,11.62c1.61,1.96,2.58,4.47,2.61,7.18-.38-.07-4.19-.85-8.03-.37-.09-.19-.16-.4-.25-.6-.23-.56-.5-1.13-.76-1.67,4.25-1.73,6.19-4.22,6.44-4.54ZM19.58,7.38c2.93,0,5.61,1.1,7.65,2.9-.21.29-1.95,2.62-6.05,4.16-1.89-3.47-3.99-6.32-4.31-6.76.86-.21,1.77-.31,2.71-.31ZM14.67,8.46c.31.41,2.36,3.27,4.28,6.67-5.39,1.44-10.16,1.41-10.67,1.41.75-3.58,3.17-6.55,6.39-8.08ZM8.03,18.92v-.35c.5.01,6.1.09,11.86-1.64.34.65.65,1.3.94,1.96-.15.04-.31.09-.45.13-5.95,1.92-9.12,7.17-9.38,7.61-1.83-2.04-2.96-4.75-2.96-7.71ZM19.58,30.45c-2.67,0-5.13-.91-7.08-2.43.21-.43,2.55-4.94,9.06-7.21.03-.01.04-.01.07-.03,1.63,4.21,2.29,7.74,2.46,8.75-1.39.6-2.92.92-4.52.92ZM26.01,28.47c-.12-.7-.73-4.08-2.24-8.22,3.62-.57,6.79.37,7.18.5-.5,3.21-2.35,5.98-4.94,7.73Z"></path>
      </g>
    </g>
  </g>
</svg>
